<svg width="100" height="93" viewBox="0 0 100 93" fill="none" xmlns="http://www.w3.org/2000/svg">
<path d="M100 45.9548C99.6695 47.0588 99.7127 48.2178 99.5528 49.3476C98.0257 60.1288 94.1917 69.7794 86.962 77.7504C82.4458 82.7283 77.1489 86.4292 70.7811 88.2278C67.0105 89.2926 63.159 89.9462 59.2709 90.3596C56.5233 90.6496 53.7684 90.8227 51.0118 90.7686C43.8793 90.6301 36.8497 89.7818 30.122 87.0807C28.4268 86.399 26.7718 85.6284 25.1134 84.5095C28.79 82.83 32.4128 81.3345 36.2423 79.7632C34.9142 79.6464 33.7957 79.5598 32.6794 79.4473C27.5533 78.9321 22.7415 77.3241 18.2289 74.7377C14.6413 72.6817 11.3315 70.2036 8.58618 67.0004C5.20824 63.0614 3.23906 58.3194 1.88422 53.2693C0.609652 48.518 0.138141 43.6722 0.419687 38.7471C0.472786 37.8182 0.626527 36.8958 0.715025 35.9684C0.765448 35.4431 0.980519 35.4593 1.38534 35.6197C5.39676 37.2094 9.42732 38.7384 13.6042 39.7955C16.2386 40.4623 18.9038 40.8917 21.6067 41.0863C22.0098 41.1155 22.1304 41.0445 22.1811 40.5878C22.6162 36.6579 22.9806 32.7146 23.8607 28.8561C25.6249 21.1207 29.6299 14.9325 35.6457 10.1815C41.3906 5.64404 47.717 2.38223 54.7865 0.84104C56.3502 0.500164 57.9325 0.248674 59.5321 0.154744C59.664 0.146952 59.8385 0.220973 59.8922 -7.93149e-07C60.3361 -7.93149e-07 60.7803 -7.93149e-07 61.2242 -7.93149e-07C62.1238 0.324859 63.0512 0.0986863 63.9646 0.135912C64.3778 0.152794 64.8353 0.361869 65.2202 -7.93149e-07C65.2696 -7.93149e-07 65.3188 -7.93149e-07 65.3682 -7.93149e-07C65.3904 0.124879 65.4746 0.151719 65.58 0.154966C67.8753 0.227253 70.1312 0.624615 72.3331 1.26698C80.1771 3.55507 87.0738 7.49559 92.3388 14.2086C92.5711 14.5051 92.8051 14.6072 93.1525 14.5997C94.3353 14.5735 95.5218 14.6155 96.6857 14.826C98.661 15.1836 99.0714 15.6946 98.973 17.4989C98.8707 19.3778 98.1911 21.0019 97.1191 22.4615C96.8398 22.8417 96.749 23.1363 96.9295 23.6193C98.3908 27.533 99.2873 31.5919 99.7304 35.7716C99.7981 36.4103 99.6791 37.0947 100 37.6985C100 40.4506 100 43.2027 100 45.9548Z" fill="#060707"/>
<path d="M88.6361 25.1346C86.6634 24.9428 84.8206 24.9662 82.9897 25.2404C82.4377 25.3229 82.2356 25.1506 82.0911 24.6015C81.6126 22.7831 80.8458 21.1207 79.515 19.8002C78.2262 18.5214 76.7395 17.8961 74.9424 18.1772C72.7163 18.5253 71.4695 19.9392 71.2724 22.3216C71.1189 24.1741 71.6599 25.8481 72.4023 27.467C72.625 27.9527 72.59 28.1343 72.0956 28.3397C67.4874 30.2551 63.0466 32.5081 59.0601 35.6535C58.8599 35.8115 58.7259 35.9264 58.5514 35.6007C55.9139 30.6788 55.0462 25.625 57.5626 20.3454C58.4102 18.5675 59.7 17.2217 61.3436 16.1969C64.1942 14.4196 67.129 12.884 70.4006 12.1722C75.027 11.1656 79.0098 12.5609 82.4797 15.8004C85.2194 18.3584 87.0947 21.5546 88.6361 25.1346Z" fill="#FDFDFD"/>
</svg>
