<svg width="211" height="663" viewBox="0 0 211 663" fill="none" xmlns="http://www.w3.org/2000/svg">
<path d="M163.241 362.5H165.741V360V91.9451C165.785 90.9321 165.77 89.8611 165.756 88.8887L165.755 88.8495C165.748 88.3413 165.741 87.8579 165.741 87.391C165.741 87.2029 165.863 86.7584 166.565 86.0258C167.236 85.3256 168.105 84.7001 168.95 84.1004L168.975 84.0829C169.243 83.8928 169.535 83.6855 169.782 83.4955C169.921 83.3881 170.155 83.2059 170.387 82.9713C173.6 80.5027 175.5 76.085 175.5 71.3551V16.0592C175.5 12.528 174.451 9.23143 172.632 6.75809C170.814 4.28592 168.098 2.5 164.867 2.5H46.1325C42.9021 2.5 40.1858 4.28593 38.3679 6.75809C36.5491 9.23143 35.5 12.528 35.5 16.0592V71.3551C35.5 76.085 37.3996 80.5027 40.6126 82.9713C40.8448 83.2058 41.0786 83.388 41.218 83.4955C41.4644 83.6854 41.7564 83.8925 42.0244 84.0827L42.0495 84.1004C42.0495 84.1004 42.0495 84.1004 42.0495 84.1005C42.8947 84.7001 43.7641 85.3256 44.4349 86.0258C45.1366 86.7584 45.259 87.2029 45.259 87.391C45.259 87.8579 45.2521 88.3413 45.2448 88.8495L45.2442 88.8879C45.2301 89.8606 45.2146 90.9319 45.259 91.9451V360V362.5H47.759H163.241Z" fill="black" stroke="white" stroke-width="5"/>
<mask id="path-2-outside-1_73_807" maskUnits="userSpaceOnUse" x="42.75" y="358" width="126" height="282" fill="black">
<rect fill="white" x="42.75" y="358" width="126" height="282"/>
<path d="M47.75 358H163.25V635H47.75V358Z"/>
</mask>
<path d="M47.75 358H163.25V635H47.75V358Z" fill="black"/>
<path d="M163.25 635V640H168.25V635H163.25ZM47.75 635H42.75V640H47.75V635ZM158.25 358V635H168.25V358H158.25ZM163.25 630H47.75V640H163.25V630ZM52.75 635V358H42.75V635H52.75Z" fill="white" mask="url(#path-2-outside-1_73_807)"/>
<path d="M36 73C36.406 77.9726 42.46 84.5835 44.9313 85.7077C52.7551 89.2669 61.4931 92.174 70.0371 94.0556C86.0186 97.575 102.351 97.3275 118.753 96.4244C132.305 95.6783 145.261 93.3494 158.036 89.2574C161.49 88.1509 165.91 86.2602 168.527 84.4893C169.311 83.8285 171.535 82.1071 172 81.2877" stroke="white" stroke-width="4.5" stroke-linecap="round"/>
<g opacity="0.3" filter="url(#filter0_f_73_807)">
<path d="M171 48.8854C171 54.0105 140.454 80 104.28 80C68.1049 80 40 49.6435 40 44.5184C40 39.3933 65.6639 48.8854 101.839 48.8854C138.013 48.8854 171 43.7603 171 48.8854Z" fill="white"/>
</g>
<g opacity="0.15" filter="url(#filter1_f_73_807)">
<path d="M104.261 112.015C110.84 112.015 145 96.5519 145 370.063C145 643.574 105.935 622.631 99.3561 622.631C92.7774 622.631 68 628.53 68 355.019C68 81.5076 97.6823 112.015 104.261 112.015Z" fill="white"/>
</g>
<defs>
<filter id="filter0_f_73_807" x="0" y="3" width="211" height="117" filterUnits="userSpaceOnUse" color-interpolation-filters="sRGB">
<feFlood flood-opacity="0" result="BackgroundImageFix"/>
<feBlend mode="normal" in="SourceGraphic" in2="BackgroundImageFix" result="shape"/>
<feGaussianBlur stdDeviation="20" result="effect1_foregroundBlur_73_807"/>
</filter>
<filter id="filter1_f_73_807" x="28" y="71" width="157" height="592" filterUnits="userSpaceOnUse" color-interpolation-filters="sRGB">
<feFlood flood-opacity="0" result="BackgroundImageFix"/>
<feBlend mode="normal" in="SourceGraphic" in2="BackgroundImageFix" result="shape"/>
<feGaussianBlur stdDeviation="20" result="effect1_foregroundBlur_73_807"/>
</filter>
</defs>
</svg>
