<svg width="161" height="147" viewBox="0 0 161 147" fill="none" xmlns="http://www.w3.org/2000/svg">
<path fill-rule="evenodd" clip-rule="evenodd" d="M-18.9467 188.623L-17.4888 189.374C-16.6204 189.821 -15.6918 190.187 -14.7794 190.535C-12.2584 191.497 -9.65741 192.26 -7.03821 192.901C2.86201 195.325 13.3348 196.036 23.4989 195.742C40.2254 195.259 57.5664 192.231 73.1554 186.06L73.1943 186.045L73.2337 186.03C85.2342 181.623 95.2513 174.157 103.502 164.439C104.734 162.988 105.913 161.49 107.036 159.952C125.545 134.612 129.151 98.2031 118.064 69.068L117.504 67.5963L118.271 66.2228C119.878 63.3454 121.452 60.4477 122.911 57.4917C124.28 54.7196 125.679 51.7444 126.488 48.7529C126.785 47.6589 127.051 46.3142 126.611 45.217C125.825 43.2573 123.285 42.9615 121.457 42.8398C119.505 42.7092 117.511 42.7986 115.558 42.9037C113.015 43.0402 110.475 43.2561 107.941 43.5138C107.025 43.6065 106.109 43.7052 105.194 43.8102L103.587 43.995L102.438 42.8522C100.452 40.8761 98.289 39.0764 96.0717 37.3688C93.5702 35.4425 90.7507 33.8144 87.964 32.34C84.4168 30.4627 80.7465 28.8042 76.994 27.3841C74.644 26.4946 72.2567 25.6993 69.8313 25.0435C45.5715 18.4857 20.6126 23.3663 -0.031227 37.4702C-16.5773 48.7749 -28.7361 62.395 -32.5034 82.6258C-33.0268 85.4342 -33.3072 88.2941 -33.4898 91.1434C-33.7514 95.2211 -33.8003 99.3131 -33.7291 103.399C-33.7203 103.898 -33.7104 104.397 -33.6985 104.895L-33.6185 108.262L-36.9791 108.34C-50.3134 108.65 -63.3902 105.809 -76.3008 102.794L-77.3038 102.559L-77.3718 103.589C-77.9964 113.049 -76.2004 123.008 -73.0868 131.931C-69.1021 143.348 -62.0071 155.543 -52.0696 162.719C-40.2912 171.224 -26.7096 176.515 -12.2624 177.924L-1.28741 178.996L-10.9834 184.243C-13.1677 185.425 -15.3449 186.62 -17.5147 187.827L-18.9467 188.623Z" fill="#13100D"/>
<path fill-rule="evenodd" clip-rule="evenodd" d="M92.7082 77.1253C92.4913 83.1037 91.378 89.2882 87.867 94.1234C83.9255 99.5501 77.5081 102.563 71.1701 104.743C68.1027 105.799 64.9374 106.719 61.6921 106.77C54.9754 106.875 48.589 103.137 44.2967 97.9556C40.0046 92.7734 37.5772 86.2832 36.0095 79.7369C34.0796 71.6796 33.3857 62.9916 36.3808 55.2737C39.3752 47.5549 48.5944 42.3904 56.664 40.5896C67.6746 38.1328 77.4327 42.6618 84.3456 49.9961C91.0089 57.0657 93.0617 67.4143 92.7082 77.1253Z" fill="white"/>
<path fill-rule="evenodd" clip-rule="evenodd" d="M78.8187 62.2686C80.9895 69.8 79.1264 76.9495 74.6587 78.2373C70.1898 79.5254 64.8079 74.4643 62.637 66.9328C60.4661 59.4014 62.3286 52.2525 66.7975 50.9644C71.2652 49.6766 76.6478 54.7372 78.8187 62.2686Z" fill="#13100D"/>
</svg>
