<svg width="155" height="93" viewBox="0 0 155 93" fill="none" xmlns="http://www.w3.org/2000/svg">
<path d="M17.6705 93C16.5718 92.4546 15.6912 91.7144 15.5191 90.4029C15.3008 88.7429 16.347 87.3035 18.062 86.9681C24.5694 85.6955 31.082 84.4488 37.5903 83.1806C43.5692 82.0162 49.5454 80.8345 55.5228 79.6614C57.187 79.3346 58.8486 78.9948 60.5169 78.6897C62.3723 78.3521 63.9111 79.3325 64.2786 81.0487C64.6357 82.7153 63.5705 84.2497 61.7119 84.6588C60.2316 84.9856 58.7353 85.2367 57.2474 85.5289C50.1849 86.9118 43.1244 88.3056 36.0606 89.6821C30.5864 90.7491 25.1086 91.7988 19.6332 92.8593C19.5417 92.8766 19.4611 92.9523 19.3754 93C18.8071 93 18.2388 93 17.6705 93Z" fill="#0A0A0A"/>
<path d="M1.78133e-05 80.1246C-0.004613 78.5555 0.893848 77.4149 2.45309 77.1076C9.08103 75.8003 15.7132 74.5126 22.342 73.2076C28.5421 71.989 34.7401 70.7576 40.9391 69.5304C41.7698 69.3659 42.5981 69.1863 43.4325 69.0435C45.0283 68.7686 46.6152 69.8442 46.9355 71.3917C47.2793 73.0561 46.2707 74.6901 44.5843 75.0321C40.0012 75.9583 35.4084 76.8349 30.8195 77.7309C26.2063 78.6334 21.5928 79.5337 16.98 80.4363C12.4427 81.3258 7.90816 82.2283 3.36846 83.1048C1.6602 83.4338 0.00532219 81.9469 1.78133e-05 80.1246Z" fill="#0A0A0A"/>
<path d="M21.4223 66.1C19.6053 66.1 18.3533 64.9724 18.1625 63.3687C17.9914 61.9273 18.9948 60.4707 20.477 60.1417C24.0123 59.3561 27.556 58.6073 31.0985 57.8541C34.6918 57.0901 38.2864 56.33 41.884 55.5853C43.4898 55.2528 45.0947 56.2934 45.4079 57.8303C45.759 59.553 44.8076 61.1546 43.1473 61.5161C38.5021 62.5225 33.8503 63.4986 29.2006 64.4876C26.8889 64.9789 24.577 65.4702 22.2642 65.9572C21.9129 66.0308 21.5564 66.0784 21.4223 66.1Z" fill="#0A0A0A"/>
<path d="M155 45.9548C154.654 47.0588 154.699 48.2178 154.532 49.3476C152.932 60.1288 148.917 69.7794 141.345 77.7504C136.615 82.7283 131.068 86.4292 124.399 88.2278C120.45 89.2926 116.417 89.9462 112.344 90.3596C109.467 90.6496 106.582 90.8227 103.695 90.7686C96.2249 90.6301 88.8628 89.7818 81.8169 87.0807C80.0415 86.399 78.3083 85.6284 76.5715 84.5095C80.4219 82.83 84.2161 81.3345 88.2267 79.7632C86.8358 79.6464 85.6644 79.5598 84.4953 79.4473C79.1267 78.9321 74.0873 77.3241 69.3614 74.7377C65.604 72.6817 62.1377 70.2036 59.2625 67.0004C55.7248 63.0614 53.6625 58.3194 52.2436 53.2693C50.9087 48.518 50.4149 43.6722 50.7098 38.7471C50.7654 37.8182 50.9264 36.8958 51.0191 35.9684C51.0719 35.4431 51.2971 35.4593 51.7211 35.6197C55.9223 37.2094 60.1434 38.7384 64.5179 39.7955C67.2768 40.4623 70.0681 40.8917 72.8988 41.0863C73.3211 41.1155 73.4474 41.0445 73.5004 40.5878C73.9561 36.6579 74.3378 32.7146 75.2595 28.8561C77.1071 21.1207 81.3016 14.9325 87.6019 10.1815C93.6185 5.64404 100.244 2.38223 107.648 0.841042C109.286 0.500168 110.943 0.248672 112.618 0.154747C112.756 0.14695 112.939 0.22097 112.995 0C113.46 0 113.925 0 114.39 0C115.332 0.32486 116.304 0.0986862 117.26 0.13591C117.693 0.152794 118.172 0.36187 118.575 0C118.627 0 118.678 0 118.73 0C118.753 0.124878 118.842 0.151718 118.952 0.154968C121.356 0.227257 123.718 0.624611 126.025 1.26698C134.24 3.55507 141.462 7.49559 146.976 14.2086C147.22 14.5051 147.465 14.6072 147.829 14.5997C149.067 14.5735 150.31 14.6155 151.529 14.826C153.598 15.1836 154.027 15.6946 153.924 17.4989C153.817 19.3778 153.106 21.0019 151.983 22.4614C151.69 22.8417 151.595 23.1363 151.784 23.6193C153.315 27.533 154.254 31.5919 154.718 35.7716C154.789 36.4103 154.664 37.0947 155 37.6985C155 40.4506 155 43.2027 155 45.9548Z" fill="#060707"/>
<path d="M143.099 25.1346C141.033 24.9428 139.103 24.9662 137.185 25.2404C136.607 25.3229 136.395 25.1506 136.244 24.6015C135.743 22.7831 134.94 21.1207 133.546 19.8002C132.196 18.5214 130.639 17.8961 128.757 18.1772C126.426 18.5253 125.12 19.9392 124.914 22.3216C124.753 24.1741 125.319 25.8481 126.097 27.467C126.33 27.9527 126.294 28.1343 125.776 28.3397C120.95 30.2551 116.299 32.5081 112.124 35.6535C111.914 35.8115 111.774 35.9264 111.591 35.6007C108.829 30.6788 107.92 25.625 110.555 20.3454C111.443 18.5675 112.794 17.2217 114.515 16.1969C117.501 14.4196 120.574 12.884 124.001 12.1722C128.846 11.1656 133.017 12.5609 136.651 15.8004C139.52 18.3584 141.484 21.5546 143.099 25.1346Z" fill="#FDFDFD"/>
</svg>
