<svg width="56" height="342" viewBox="0 0 56 342" fill="none" xmlns="http://www.w3.org/2000/svg">
<path d="M2.5 71.3551C2.5 74.4643 2.80536 77.4656 3.38864 79.788L3.18305 79.8888L5.82479 87.796C5.82394 88.1486 5.82217 88.5083 5.82038 88.8733L5.82031 88.8872C5.81537 89.8889 5.81023 90.9337 5.8253 91.9084V360V362.5H8.3253H47.6747H50.1747V360V91.9085C50.1898 90.934 50.1846 89.8896 50.1797 88.8882L50.1796 88.8733C50.1778 88.5083 50.1761 88.1486 50.1752 87.796L52.817 79.8888L52.6114 79.788C53.1946 77.4656 53.5 74.4643 53.5 71.3551V16.0592C53.5 12.8621 53.1777 9.88359 52.6134 7.63152C52.3361 6.52469 51.9659 5.45152 51.4584 4.59487C51.0491 3.90397 50.0383 2.5 48.2289 2.5H7.77108C5.9617 2.5 4.95085 3.90397 4.54155 4.59487C4.03407 5.45152 3.66394 6.52469 3.3866 7.63152C2.8223 9.88359 2.5 12.8621 2.5 16.0592V71.3551Z" fill="black" stroke="white" stroke-width="5"/>
</svg>
